<svg width="21" height="21" viewBox="0 0 21 21" fill="none" xmlns="http://www.w3.org/2000/svg">
<path d="M18.7812 6.63623V14.9233C18.7812 15.4727 18.563 15.9997 18.1744 16.3882C17.7859 16.7768 17.2589 16.995 16.7095 16.995H4.27891C3.72945 16.995 3.20249 16.7768 2.81396 16.3882C2.42543 15.9997 2.20715 15.4727 2.20715 14.9233V6.63623" stroke="#54B22C" stroke-width="1.39222" stroke-linecap="round" stroke-linejoin="round"/>
<path d="M18.7812 6.63621C18.7812 6.08675 18.563 5.55979 18.1744 5.17126C17.7859 4.78273 17.2589 4.56445 16.7095 4.56445H4.27891C3.72945 4.56445 3.20249 4.78273 2.81396 5.17126C2.42543 5.55979 2.20715 6.08675 2.20715 6.63621L9.39616 11.125C9.72543 11.3308 10.1059 11.4399 10.4942 11.4399C10.8825 11.4399 11.263 11.3308 11.5922 11.125L18.7812 6.63621Z" stroke="#54B22C" stroke-width="1.39222" stroke-linecap="round" stroke-linejoin="round"/>
</svg>
