<svg width="21" height="21" viewBox="0 0 21 21" fill="none" xmlns="http://www.w3.org/2000/svg">
<path d="M17.0279 9.23832C17.0279 14.5873 11.5493 17.8826 10.4107 18.5103C10.3477 18.5451 10.2768 18.5633 10.2048 18.5633C10.1328 18.5633 10.0619 18.5451 9.99883 18.5103C8.85945 17.8826 3.38257 14.5873 3.38257 9.23832C3.38257 4.97417 5.94106 1.98926 10.2052 1.98926C14.4694 1.98926 17.0279 4.97417 17.0279 9.23832Z" stroke="#54B22C" stroke-width="1.39222" stroke-linecap="round" stroke-linejoin="round"/>
<path d="M6.79395 8.8122C6.79395 9.71694 7.15335 10.5846 7.7931 11.2244C8.43285 11.8641 9.30053 12.2235 10.2053 12.2235C11.11 12.2235 11.9777 11.8641 12.6174 11.2244C13.2572 10.5846 13.6166 9.71694 13.6166 8.8122C13.6166 7.90746 13.2572 7.03978 12.6174 6.40003C11.9777 5.76028 11.11 5.40088 10.2053 5.40088C9.30053 5.40088 8.43285 5.76028 7.7931 6.40003C7.15335 7.03978 6.79395 7.90746 6.79395 8.8122V8.8122Z" stroke="#54B22C" stroke-width="1.39222" stroke-linecap="round" stroke-linejoin="round"/>
</svg>
