<svg width="21" height="21" viewBox="0 0 21 21" fill="none" xmlns="http://www.w3.org/2000/svg">
<path d="M12.5888 18.008L12.5979 18.0144C13.3806 18.5127 14.3099 18.7291 15.2322 18.6278C16.1545 18.5265 17.0146 18.1136 17.6705 17.4573L18.2403 16.8875C18.3665 16.7614 18.4667 16.6115 18.535 16.4466C18.6034 16.2817 18.6385 16.105 18.6385 15.9265C18.6385 15.748 18.6034 15.5712 18.535 15.4063C18.4667 15.2414 18.3665 15.0916 18.2403 14.9654L15.8371 12.5641C15.7109 12.4378 15.5611 12.3376 15.3962 12.2693C15.2313 12.201 15.0545 12.1658 14.876 12.1658C14.6975 12.1658 14.5208 12.201 14.3559 12.2693C14.191 12.3376 14.0412 12.4378 13.915 12.5641C13.6602 12.8188 13.3146 12.9619 12.9543 12.9619C12.5941 12.9619 12.2485 12.8188 11.9937 12.5641L8.15124 8.72066C7.89652 8.46586 7.75342 8.12033 7.75342 7.76004C7.75342 7.39975 7.89652 7.05422 8.15124 6.79942C8.2775 6.67324 8.37766 6.52341 8.446 6.35851C8.51434 6.1936 8.54951 6.01685 8.54951 5.83834C8.54951 5.65984 8.51434 5.48309 8.446 5.31818C8.37766 5.15328 8.2775 5.00345 8.15124 4.87727L5.74901 2.47594C5.49421 2.22122 5.14867 2.07812 4.78838 2.07812C4.4281 2.07812 4.08256 2.22122 3.82776 2.47594L3.2571 3.0457C2.60091 3.70168 2.18816 4.56189 2.08703 5.4842C1.98591 6.40651 2.20247 7.33572 2.70092 8.11829L2.70636 8.12735C5.33884 12.0222 8.69354 15.3763 12.5888 18.008V18.008Z" stroke="#54B22C" stroke-width="1.39222" stroke-linecap="round" stroke-linejoin="round"/>
</svg>
