<svg width="20" height="20" viewBox="0 0 20 20" fill="none" xmlns="http://www.w3.org/2000/svg">
<path fill-rule="evenodd" clip-rule="evenodd" d="M1.43335 10.076C1.43335 6.50081 1.43335 4.71323 2.28528 3.42568C2.66571 2.85073 3.1581 2.35834 3.73305 1.97791C5.0206 1.12598 6.80818 1.12598 10.3834 1.12598C13.9585 1.12598 15.7461 1.12598 17.0336 1.97791C17.6086 2.35834 18.101 2.85073 18.4814 3.42568C19.3334 4.71323 19.3334 6.50081 19.3334 10.076C19.3334 13.6511 19.3334 15.4387 18.4814 16.7263C18.101 17.3012 17.6086 17.7936 17.0336 18.174C15.7461 19.026 13.9585 19.026 10.3834 19.026C6.80818 19.026 5.0206 19.026 3.73305 18.174C3.1581 17.7936 2.66571 17.3012 2.28528 16.7263C1.43335 15.4387 1.43335 13.6511 1.43335 10.076ZM15.0166 10.076C15.0166 12.635 12.9421 14.7095 10.383 14.7095C7.82401 14.7095 5.74951 12.635 5.74951 10.076C5.74951 7.517 7.82401 5.4425 10.383 5.4425C12.9421 5.4425 15.0166 7.517 15.0166 10.076ZM10.383 13.1419C12.0763 13.1419 13.4489 11.7693 13.4489 10.076C13.4489 8.38279 12.0763 7.01015 10.383 7.01015C8.6898 7.01015 7.31716 8.38279 7.31716 10.076C7.31716 11.7693 8.6898 13.1419 10.383 13.1419ZM15.1996 6.2988C15.8009 6.2988 16.2883 5.81135 16.2883 5.21005C16.2883 4.60876 15.8009 4.12131 15.1996 4.12131C14.5983 4.12131 14.1109 4.60876 14.1109 5.21005C14.1109 5.81135 14.5983 6.2988 15.1996 6.2988Z" fill="#54B22C"/>
</svg>
