<svg width="20" height="19" viewBox="0 0 20 19" fill="none" xmlns="http://www.w3.org/2000/svg">
<path d="M1.20569 3.02862C1.20569 2.45461 1.40727 1.98107 1.81042 1.60798C2.21357 1.23488 2.73768 1.04834 3.38272 1.04834C4.01625 1.04834 4.52882 1.23201 4.92046 1.59937C5.3236 1.97821 5.52519 2.47183 5.52519 3.08028C5.52519 3.63131 5.32938 4.0905 4.93773 4.45786C4.53459 4.8367 4.00472 5.02612 3.34816 5.02612H3.33088C2.69735 5.02612 2.18478 4.8367 1.79314 4.45786C1.4015 4.07903 1.20569 3.60261 1.20569 3.02862ZM1.4303 18.096V6.59312H5.26602V18.096H1.4303ZM7.39121 18.096H11.2269V11.673C11.2269 11.2712 11.273 10.9612 11.3651 10.7431C11.5264 10.3528 11.7712 10.0227 12.0995 9.75295C12.4277 9.48317 12.8395 9.34829 13.3348 9.34829C14.6249 9.34829 15.27 10.215 15.27 11.9485V18.096H19.1057V11.5008C19.1057 9.80174 18.7025 8.51313 17.8962 7.63492C17.0899 6.75671 16.0245 6.3176 14.6998 6.3176C13.2139 6.3176 12.0563 6.95474 11.2269 8.229V8.26344H11.2096L11.2269 8.229V6.59312H7.39121C7.41424 6.96047 7.42577 8.10271 7.42577 10.0199C7.42577 11.937 7.41424 14.629 7.39121 18.096Z" fill="#54B22C"/>
</svg>
