<svg width="20" height="16" viewBox="0 0 20 16" fill="none" xmlns="http://www.w3.org/2000/svg">
<path d="M13.6215 0.817677V0.814453H14.4608L14.7675 0.875703C14.9719 0.915467 15.1575 0.967578 15.3243 1.03205C15.4911 1.09652 15.6525 1.17175 15.8085 1.25771C15.9646 1.34367 16.1061 1.43125 16.2331 1.52044C16.359 1.60856 16.4719 1.70204 16.572 1.8009C16.671 1.90083 16.8254 1.92662 17.0352 1.87827C17.2451 1.82991 17.471 1.76274 17.7131 1.67679C17.9553 1.59083 18.1947 1.49412 18.4314 1.38665C18.6681 1.27919 18.8123 1.21096 18.864 1.18195C18.9146 1.15187 18.9415 1.13576 18.9447 1.1336L18.9479 1.12876L18.9641 1.1207L18.9802 1.11264L18.9963 1.10458L19.0125 1.09652L19.0157 1.09169L19.0205 1.08847L19.0254 1.08524L19.0286 1.08041L19.0448 1.07557L19.0609 1.07235L19.0577 1.09652L19.0528 1.1207L19.0448 1.14488L19.0367 1.16906L19.0286 1.18518L19.0205 1.20129L19.0125 1.22547C19.0071 1.24159 19.0017 1.26308 18.9963 1.28994C18.991 1.31681 18.9398 1.42426 18.843 1.61231C18.7462 1.80037 18.6251 1.99109 18.4798 2.18451C18.3346 2.37793 18.2044 2.52406 18.0892 2.62293C17.973 2.72287 17.8961 2.79271 17.8584 2.83247C17.8208 2.8733 17.775 2.9109 17.7212 2.9453L17.6405 2.99849L17.6244 3.00655L17.6082 3.01461L17.605 3.01945L17.6002 3.02267L17.5953 3.02589L17.5921 3.03073L17.576 3.03879L17.5598 3.04685L17.5566 3.05168L17.5517 3.05491L17.5469 3.05813L17.5437 3.06296L17.5405 3.0678L17.5356 3.07102L17.5308 3.07425L17.5275 3.07908H17.6082L18.0602 2.98237C18.3615 2.9179 18.6493 2.84 18.9237 2.74866L19.3595 2.60359L19.4079 2.58747L19.4321 2.57941L19.4483 2.57135L19.4644 2.5633L19.4806 2.55524L19.4967 2.54718L19.529 2.54234L19.5613 2.53912V2.57135L19.5532 2.57458L19.5451 2.57941L19.5419 2.58425L19.537 2.58747L19.5322 2.5907L19.529 2.59553L19.5258 2.60037L19.5209 2.60359L19.5161 2.60681L19.5128 2.61165L19.5096 2.61649L19.5048 2.61971L19.4967 2.63583L19.4886 2.65195L19.4838 2.65517C19.4816 2.65839 19.4133 2.74972 19.2788 2.92918C19.1443 3.10971 19.0717 3.20103 19.0609 3.20319C19.0501 3.20642 19.0351 3.22254 19.0157 3.25155C18.9974 3.28163 18.8833 3.40145 18.6735 3.61099C18.4637 3.82053 18.2582 4.00695 18.057 4.1703C17.8547 4.3347 17.7524 4.53672 17.7503 4.77635C17.7471 5.0149 17.7347 5.28462 17.7131 5.58549C17.6916 5.88637 17.6513 6.21141 17.5921 6.56065C17.5329 6.90989 17.4415 7.30479 17.3177 7.74535C17.194 8.18591 17.0433 8.61574 16.8658 9.03482C16.6882 9.4539 16.5026 9.82999 16.3089 10.1631C16.1152 10.4962 15.9377 10.7783 15.7763 11.0093C15.6149 11.2403 15.4508 11.4579 15.284 11.6621C15.1172 11.8663 14.9063 12.0962 14.6513 12.352C14.3952 12.6066 14.2553 12.7463 14.2316 12.7711C14.2069 12.7947 14.1014 12.8828 13.9152 13.0354C13.7302 13.1891 13.5311 13.3427 13.318 13.4964C13.1061 13.649 12.9113 13.7763 12.7338 13.8784C12.5562 13.9805 12.3421 14.097 12.0914 14.2282C11.8417 14.3603 11.5716 14.4828 11.2811 14.5957C10.9906 14.7085 10.6839 14.8133 10.3611 14.91C10.0383 15.0067 9.72621 15.0819 9.42492 15.1356C9.12363 15.1893 8.78198 15.235 8.39998 15.2726L7.82699 15.329V15.3371H6.77785V15.329L6.64065 15.321C6.5492 15.3156 6.47387 15.3102 6.41468 15.3049C6.35551 15.2995 6.13222 15.2699 5.74484 15.2162C5.35747 15.1625 5.05349 15.1087 4.8329 15.055C4.61232 15.0013 4.28411 14.8992 3.84832 14.7488C3.41252 14.5983 3.03967 14.4463 2.72977 14.2926C2.42095 14.14 2.22726 14.0433 2.1487 14.0025C2.07123 13.9627 1.98407 13.9133 1.88722 13.8542L1.74196 13.7656L1.73875 13.7607L1.73389 13.7575L1.72905 13.7543L1.72582 13.7494L1.70968 13.7414L1.69354 13.7333L1.69032 13.7285L1.68547 13.7253L1.68062 13.722L1.6774 13.7172L1.67418 13.7124L1.66933 13.7091H1.66125V13.6769L1.6774 13.6801L1.69354 13.685L1.76617 13.693C1.81459 13.6984 1.94641 13.7065 2.16162 13.7172C2.37684 13.728 2.60548 13.728 2.84759 13.7172C3.0897 13.7065 3.3372 13.6823 3.59006 13.6447C3.84294 13.6071 4.14154 13.5426 4.48587 13.4512C4.83022 13.3599 5.14657 13.2514 5.43496 13.1257C5.72226 12.9989 5.9267 12.9043 6.0483 12.842C6.16881 12.7807 6.35281 12.6668 6.6003 12.5003L6.97153 12.2504L6.97476 12.2456L6.9796 12.2424L6.98446 12.2391L6.98768 12.2343L6.9909 12.2295L6.99575 12.2263L7.0006 12.223L7.00382 12.2182L7.01996 12.2134L7.0361 12.2101L7.03933 12.194L7.04417 12.1779L7.04903 12.1747L7.05224 12.1698L6.92311 12.1618C6.83703 12.1564 6.75364 12.151 6.67293 12.1457C6.59223 12.1403 6.4658 12.1161 6.29363 12.0731C6.12147 12.0301 5.93585 11.9657 5.73677 11.8797C5.53771 11.7937 5.34402 11.6917 5.15571 11.5735C4.96741 11.4553 4.83128 11.3569 4.74735 11.2785C4.6645 11.2011 4.55689 11.0915 4.42454 10.9497C4.29327 10.8068 4.1792 10.6601 4.08236 10.5096C3.98551 10.3592 3.89298 10.1857 3.80475 9.98903L3.67077 9.69567L3.6627 9.67149L3.65463 9.64732L3.64979 9.6312L3.64656 9.61508L3.67077 9.6183L3.69498 9.62314L3.87253 9.64732C3.9909 9.66343 4.17652 9.6688 4.42938 9.66343C4.68226 9.65807 4.85711 9.64732 4.95395 9.6312C5.0508 9.61508 5.10998 9.60433 5.1315 9.59896L5.16378 9.5909L5.20413 9.58284L5.24448 9.57478L5.24771 9.56995L5.25255 9.56672L5.25741 9.5635L5.26062 9.55867L5.22834 9.55061L5.19606 9.54255L5.16378 9.53449L5.1315 9.52643L5.09922 9.51837C5.0777 9.513 5.04005 9.50225 4.98623 9.48613C4.93244 9.47001 4.78717 9.41091 4.55043 9.30883C4.31372 9.20675 4.1254 9.10735 3.98551 9.01064C3.84527 8.91365 3.71156 8.80758 3.58522 8.69311C3.45933 8.57706 3.32106 8.42769 3.17041 8.24502C3.01977 8.06235 2.88527 7.85012 2.76689 7.60834C2.64853 7.36657 2.55976 7.13554 2.50057 6.91525C2.44162 6.69626 2.40273 6.47237 2.38437 6.24634L2.3553 5.90786L2.37144 5.91108L2.38758 5.91592L2.40373 5.92397L2.41987 5.93203L2.43601 5.94009L2.45215 5.94815L2.70233 6.06098C2.86913 6.1362 3.07626 6.20068 3.32374 6.2544C3.57124 6.30812 3.71919 6.33768 3.76761 6.34305L3.84025 6.35111H3.98551L3.9823 6.34628L3.97744 6.34305L3.9726 6.33983L3.96937 6.33499L3.96616 6.33016L3.9613 6.32693L3.95646 6.32371L3.95323 6.31887L3.93709 6.31081L3.92095 6.30276L3.91774 6.29792L3.91288 6.2947L3.90804 6.29147L3.90481 6.28664L3.88867 6.27858L3.87253 6.27052L3.86931 6.26568C3.86609 6.26352 3.81981 6.22914 3.73049 6.16253C3.64225 6.09483 3.54971 6.00726 3.45287 5.8998C3.35602 5.79234 3.25918 5.67951 3.16234 5.56131C3.06531 5.44284 2.9789 5.3161 2.90409 5.18253C2.82877 5.04821 2.74914 4.87734 2.6652 4.66997C2.58235 4.46365 2.51941 4.25572 2.47636 4.04618C2.43333 3.83665 2.40912 3.6298 2.40373 3.42563C2.39835 3.22146 2.40373 3.04685 2.41987 2.90178C2.43601 2.75672 2.46829 2.59284 2.51671 2.41017C2.56513 2.2275 2.63509 2.03408 2.72654 1.82991L2.86373 1.52366L2.8718 1.49948L2.87988 1.47531L2.88473 1.47208L2.88795 1.46725L2.89117 1.46241L2.89602 1.45919L2.90087 1.46241L2.90409 1.46725L2.90731 1.47208L2.91216 1.47531L2.91701 1.47853L2.92023 1.48337L2.92345 1.4882L2.9283 1.49142L2.93637 1.50754L2.94444 1.52366L2.9493 1.52688L2.95251 1.53172L3.17041 1.7735C3.31567 1.93468 3.48785 2.11467 3.68691 2.31346C3.88599 2.51225 3.99628 2.61541 4.01779 2.62293C4.03932 2.63152 4.06621 2.65623 4.0985 2.69708C4.13078 2.73684 4.23839 2.83194 4.42131 2.98237C4.60425 3.13281 4.84366 3.30743 5.13957 3.50622C5.43549 3.70501 5.76368 3.90112 6.12415 4.09454C6.48464 4.28796 6.87201 4.46257 7.28628 4.61839C7.70056 4.7742 7.99109 4.87628 8.15787 4.92464C8.32467 4.97299 8.60981 5.03477 9.01333 5.11C9.41685 5.18522 9.72084 5.23358 9.92528 5.25506C10.1297 5.27655 10.2696 5.28891 10.3449 5.29213L10.4579 5.29536L10.4547 5.27118L10.4498 5.247L10.4176 5.04552C10.3961 4.91121 10.3853 4.72316 10.3853 4.48138C10.3853 4.23961 10.4041 4.01664 10.4418 3.81247C10.4795 3.6083 10.5359 3.40145 10.6113 3.19191C10.6866 2.98237 10.7603 2.81419 10.8324 2.68741C10.9056 2.56168 11.0013 2.41823 11.1197 2.25705C11.2381 2.09586 11.3914 1.92931 11.5797 1.75738C11.768 1.58544 11.9832 1.43232 12.2253 1.298C12.4674 1.16369 12.6907 1.0616 12.8952 0.991755C13.0996 0.921914 13.2718 0.876235 13.4117 0.854749C13.5516 0.833263 13.6215 0.8209 13.6215 0.817677Z" fill="#54B22C"/>
</svg>
