<svg width="22" height="16" viewBox="0 0 22 16" fill="none" xmlns="http://www.w3.org/2000/svg">
<path d="M11.3584 15.0173L7.31874 14.9418C6.0108 14.9155 4.69961 14.968 3.41731 14.6954C1.46664 14.2882 1.32845 12.2914 1.18385 10.6165C0.9846 8.26185 1.06173 5.86443 1.43774 3.5294C1.65001 2.2192 2.48538 1.4374 3.77724 1.35232C8.13823 1.04357 12.5282 1.08016 16.8795 1.2242C17.3391 1.23741 17.8018 1.30958 18.2549 1.39173C20.4918 1.79241 20.5463 4.05517 20.6913 5.95998C20.8359 7.88446 20.7749 9.81881 20.4985 11.7302C20.2767 13.3127 19.8525 14.6399 18.0621 14.768C15.8189 14.9355 13.6271 15.0704 11.3776 15.0274C11.3777 15.0173 11.3648 15.0173 11.3584 15.0173ZM8.98346 11.0107C10.6739 10.0188 12.3321 9.04345 14.0129 8.05824C12.3193 7.06636 10.6643 6.09102 8.98346 5.10581V11.0107Z" fill="#54B22C"/>
</svg>
