<svg width="32" height="32" viewBox="0 0 32 32" fill="none" xmlns="http://www.w3.org/2000/svg">
<path d="M4 16H16V18H4V16ZM2 11H12V13H2V11Z" fill="black"/>
<path d="M29.919 16.606L26.919 9.606C26.842 9.42608 26.7138 9.27273 26.5505 9.165C26.3871 9.05727 26.1957 8.99989 26 9H23V7C23 6.73478 22.8946 6.48043 22.7071 6.29289C22.5195 6.10536 22.2652 6 22 6H5.99997V8H21V20.556C20.5443 20.8206 20.1455 21.1728 19.8266 21.5922C19.5077 22.0117 19.275 22.4902 19.142 23H12.858C12.6146 22.0573 12.0357 21.2358 11.23 20.6894C10.4242 20.143 9.44678 19.9092 8.48097 20.0319C7.51515 20.1546 6.62724 20.6253 5.98365 21.3558C5.34006 22.0863 4.98499 23.0264 4.98499 24C4.98499 24.9736 5.34006 25.9137 5.98365 26.6442C6.62724 27.3747 7.51515 27.8454 8.48097 27.9681C9.44678 28.0908 10.4242 27.857 11.23 27.3106C12.0357 26.7642 12.6146 25.9427 12.858 25H19.142C19.3595 25.8582 19.857 26.6194 20.5557 27.1632C21.2545 27.7069 22.1146 28.0021 23 28.0021C23.8853 28.0021 24.7454 27.7069 25.4442 27.1632C26.1429 26.6194 26.6404 25.8582 26.858 25H29C29.2652 25 29.5195 24.8946 29.7071 24.7071C29.8946 24.5196 30 24.2652 30 24V17C30 16.8645 29.9725 16.7305 29.919 16.606ZM8.99997 26C8.60441 26 8.21773 25.8827 7.88883 25.6629C7.55993 25.4432 7.30358 25.1308 7.15221 24.7654C7.00083 24.3999 6.96123 23.9978 7.0384 23.6098C7.11557 23.2219 7.30605 22.8655 7.58575 22.5858C7.86546 22.3061 8.22183 22.1156 8.60979 22.0384C8.99775 21.9613 9.39988 22.0009 9.76534 22.1522C10.1308 22.3036 10.4431 22.56 10.6629 22.8889C10.8827 23.2178 11 23.6044 11 24C10.9994 24.5303 10.7886 25.0387 10.4136 25.4136C10.0386 25.7886 9.53024 25.9995 8.99997 26ZM23 11H25.34L27.484 16H23V11ZM23 26C22.6044 26 22.2177 25.8827 21.8888 25.6629C21.5599 25.4432 21.3036 25.1308 21.1522 24.7654C21.0008 24.3999 20.9612 23.9978 21.0384 23.6098C21.1156 23.2219 21.306 22.8655 21.5858 22.5858C21.8655 22.3061 22.2218 22.1156 22.6098 22.0384C22.9977 21.9613 23.3999 22.0009 23.7653 22.1522C24.1308 22.3036 24.4431 22.56 24.6629 22.8889C24.8827 23.2178 25 23.6044 25 24C24.9994 24.5303 24.7886 25.0387 24.4136 25.4136C24.0386 25.7886 23.5302 25.9995 23 26ZM28 23H26.858C26.6377 22.1434 26.1394 21.3842 25.4412 20.8413C24.743 20.2983 23.8844 20.0025 23 20V18H28V23Z" fill="#3BC538"/>
</svg>
