<svg width="27" height="26" viewBox="0 0 27 26" fill="none" xmlns="http://www.w3.org/2000/svg">
<path d="M13.5 14.625C12.6656 14.625 11.85 14.3867 11.1562 13.9403C10.4624 13.494 9.92169 12.8595 9.60239 12.1172C9.28308 11.3748 9.19953 10.558 9.36231 9.76995C9.5251 8.9819 9.92689 8.25803 10.5169 7.68988C11.1069 7.12173 11.8586 6.73481 12.677 6.57806C13.4953 6.42131 14.3436 6.50176 15.1144 6.80924C15.8853 7.11672 16.5442 7.63742 17.0078 8.3055C17.4713 8.97357 17.7188 9.75902 17.7188 10.5625C17.7174 11.6395 17.2725 12.6721 16.4816 13.4337C15.6908 14.1953 14.6185 14.6237 13.5 14.625ZM13.5 8.125C12.9994 8.125 12.51 8.26796 12.0937 8.53579C11.6775 8.80363 11.353 9.18432 11.1614 9.62971C10.9698 10.0751 10.9197 10.5652 11.0174 11.038C11.1151 11.5109 11.3561 11.9452 11.7101 12.2861C12.0641 12.627 12.5152 12.8591 13.0062 12.9532C13.4972 13.0472 14.0061 12.9989 14.4687 12.8145C14.9312 12.63 15.3265 12.3175 15.6047 11.9167C15.8828 11.5159 16.0313 11.0446 16.0313 10.5625C16.0306 9.91623 15.7637 9.29662 15.2891 8.83964C14.8146 8.38266 14.1711 8.12565 13.5 8.125Z" fill="black"/>
<path d="M13.5 24.375L6.38213 16.2914C6.28323 16.1701 6.18535 16.0479 6.08851 15.925C4.87265 14.3827 4.21581 12.4989 4.21876 10.5625C4.21876 8.19213 5.1966 5.91884 6.93718 4.24273C8.67775 2.56663 11.0385 1.625 13.5 1.625C15.9615 1.625 18.3223 2.56663 20.0628 4.24273C21.8034 5.91884 22.7813 8.19213 22.7813 10.5625C22.7842 12.498 22.1277 14.381 20.9124 15.9226L20.9115 15.925C20.9115 15.925 20.6584 16.2451 20.6204 16.2882L13.5 24.375ZM7.43598 14.9459C7.43598 14.9459 7.63257 15.1962 7.67729 15.2498L13.5 21.8628L19.3303 15.2409C19.3674 15.1962 19.5649 14.9443 19.5657 14.9435C20.5589 13.6834 21.0957 12.1445 21.0938 10.5625C21.0938 8.6231 20.2937 6.76314 18.8696 5.39178C17.4455 4.02042 15.514 3.25 13.5 3.25C11.486 3.25 9.55452 4.02042 8.13042 5.39178C6.70631 6.76314 5.90626 8.6231 5.90626 10.5625C5.90449 12.1454 6.44185 13.6853 7.43598 14.9459Z" fill="black"/>
</svg>
