<svg width="195" height="73" viewBox="0 0 195 73" fill="none" xmlns="http://www.w3.org/2000/svg">
<path d="M120.215 17.6788C118.968 17.5862 118.317 17.1163 117.982 16.5949C118.046 15.3257 118.232 13.7449 118.754 12.3102C119.054 11.4886 119.479 10.7449 120 10.1982C120.57 9.54648 121.096 9.04505 121.627 8.63157C122.674 7.82041 123.593 7.46704 123.885 7.34273C124.178 7.22409 124.706 7.00105 125.344 6.75272C125.98 6.52492 126.751 6.19528 127.408 5.79225C128.756 5.02129 129.872 4.15096 129.872 4.15096C129.872 4.15096 128.68 4.84379 127.292 5.41861C126.591 5.73087 125.876 5.93616 125.207 6.09786C124.55 6.27467 123.995 6.45471 123.689 6.57838C123.117 6.82799 119.692 7.97418 117.941 11.8164C117.546 12.7977 117.297 13.8129 117.137 14.7642C116.741 14.5307 116.249 14.0789 116.115 13.2428C115.881 11.786 116.011 7.41453 119.799 4.98616C123.588 2.55809 127.818 3.04338 129.843 2.33126C131.867 1.61913 132.671 0 132.671 0C132.671 0 130.984 16.4808 120.215 17.6788Z" fill="#54B22C"/>
<path d="M15.1023 23.6185C17.2844 23.6185 19.1794 24.0589 20.7873 24.9397C22.4334 25.8205 23.6967 27.0076 24.5772 28.5012V24.0206H35.8322V55.9013C35.8322 58.9266 35.2579 61.6455 34.1095 64.0581C32.961 66.509 31.1617 68.4621 28.7117 69.9173C26.2999 71.3725 23.2373 72.1001 19.5239 72.1001C14.5473 72.1001 10.5659 70.9321 7.57989 68.5961C4.59388 66.2601 2.89032 63.0816 2.46922 59.0606H13.5519C13.7816 60.0946 14.3558 60.8988 15.2746 61.4732C16.1934 62.0476 17.3801 62.3349 18.8349 62.3349C22.6631 62.3349 24.5772 60.1903 24.5772 55.9013V51.7654C23.6967 53.2589 22.4334 54.4461 20.7873 55.3269C19.1794 56.2076 17.2844 56.648 15.1023 56.648C12.5374 56.648 10.2022 55.9779 8.0967 54.6375C6.02946 53.2972 4.38333 51.3825 3.1583 48.8933C1.97155 46.3658 1.37817 43.4362 1.37817 40.1046C1.37817 36.7729 1.97155 33.8625 3.1583 31.3733C4.38333 28.8841 6.02946 26.9694 8.0967 25.629C10.2022 24.2887 12.5374 23.6185 15.1023 23.6185ZM24.5772 40.1046C24.5772 38.0366 24.003 36.4091 22.8545 35.2219C21.7443 34.0348 20.3661 33.4412 18.72 33.4412C17.0356 33.4412 15.6383 34.0348 14.5281 35.2219C13.4179 36.3708 12.8628 37.9983 12.8628 40.1046C12.8628 42.1725 13.4179 43.8192 14.5281 45.0446C15.6383 46.2318 17.0356 46.8253 18.72 46.8253C20.3661 46.8253 21.7443 46.2318 22.8545 45.0446C24.003 43.8575 24.5772 42.2108 24.5772 40.1046Z" fill="#54B22C"/>
<path d="M84.3369 23.7334C88.3948 23.7334 91.5722 24.9588 93.8692 27.4097C96.2044 29.8606 97.372 33.2114 97.372 37.4621V56.2459H86.117V38.9557C86.117 37.2324 85.6385 35.892 84.6814 34.9347C83.7244 33.9773 82.4228 33.4986 80.7767 33.4986C79.1305 33.4986 77.8289 33.9773 76.8719 34.9347C75.9148 35.892 75.4363 37.2324 75.4363 38.9557V56.2459H64.1813V38.9557C64.1813 37.2324 63.7028 35.892 62.7457 34.9347C61.827 33.9773 60.5445 33.4986 58.8984 33.4986C57.214 33.4986 55.8932 33.9773 54.9362 34.9347C53.9791 35.892 53.5006 37.2324 53.5006 38.9557V56.2459H42.2456V24.0206H53.5006V28.2713C54.4959 26.8927 55.7784 25.8013 57.3479 24.9971C58.9558 24.1546 60.7933 23.7334 62.8606 23.7334C65.2341 23.7334 67.3396 24.2503 69.1771 25.2843C71.053 26.3183 72.5268 27.7735 73.5987 29.6499C74.7472 27.8884 76.2594 26.4715 78.1352 25.3992C80.011 24.2886 82.0782 23.7334 84.3369 23.7334ZM101.701 40.1045C101.701 36.7728 102.294 33.8624 103.481 31.3732C104.706 28.884 106.352 26.9693 108.419 25.629C110.525 24.2886 112.86 23.6185 115.425 23.6185C117.645 23.6185 119.559 24.0589 121.167 24.9397C122.775 25.8204 124.019 27.0076 124.899 28.5011V24.0206H136.154V56.2459H124.899V51.7654C124.019 53.2589 122.755 54.446 121.109 55.3268C119.502 56.2076 117.607 56.648 115.425 56.648C112.86 56.648 110.525 55.9778 108.419 54.6375C106.352 53.2972 104.706 51.3824 103.481 48.8932C102.294 46.3658 101.701 43.4362 101.701 40.1045ZM124.899 40.1045C124.899 38.0366 124.325 36.409 123.177 35.2219C122.066 34.0347 120.688 33.4412 119.043 33.4412C117.358 33.4412 115.961 34.0347 114.851 35.2219C113.741 36.3707 113.185 37.9983 113.185 40.1045C113.185 42.1724 113.741 43.8191 114.851 45.0446C115.961 46.2317 117.358 46.8253 119.043 46.8253C120.688 46.8253 122.066 46.2317 123.177 45.0446C124.325 43.8574 124.899 42.2107 124.899 40.1045ZM153.823 29.7074C155.086 27.8692 156.617 26.414 158.417 25.3418C160.216 24.2695 162.149 23.7334 164.216 23.7334V35.7389H161.058C158.608 35.7389 156.79 36.2176 155.603 37.1749C154.416 38.1323 153.823 39.7981 153.823 42.1724V56.2459H142.568V24.0206H153.823V29.7074ZM187.259 46.653V56.2459H182.378C174.147 56.2459 170.032 52.1675 170.032 44.0106V33.3837H166.069V24.0206H170.032V16.2084H181.344V24.0206H187.201V33.3837H181.344V44.1829C181.344 45.0637 181.535 45.6956 181.918 46.0785C182.339 46.4615 183.028 46.653 183.985 46.653H187.259Z" fill="#F8CB47"/>
</svg>
