<svg id="Layer_1" data-name="Layer 1" xmlns="http://www.w3.org/2000/svg" viewBox="0 0 101.57 122.88" fill="green"><title>my-orders</title><path d="M4.7,28.93H26.13V24.56a24.57,24.57,0,0,1,49.13,0v4.37h21.6a4.7,4.7,0,0,1,3.33,1.38,4.76,4.76,0,0,1,1.38,3.32V106a16.93,16.93,0,0,1-16.88,16.88H16.88A16.93,16.93,0,0,1,0,106V33.63a4.71,4.71,0,0,1,4.7-4.7ZM20.37,63.87h9.41A1.24,1.24,0,0,1,31,65.1v9.41a1.23,1.23,0,0,1-1.23,1.23H20.37a1.23,1.23,0,0,1-1.23-1.23V65.1a1.24,1.24,0,0,1,1.23-1.23Zm24,9.68c-1.74,0-3.14-1.67-3.14-3.74s1.4-3.75,3.14-3.75h37c1.74,0,3.15,1.68,3.15,3.75a3.48,3.48,0,0,1-3.15,3.74ZM18.67,97.2a2,2,0,0,1,.39-2.93,2.32,2.32,0,0,1,3.13-.1l2.19,2.25,5.48-5.61a2,2,0,0,1,2.94.31A2.33,2.33,0,0,1,33,94.25l-7.26,7.45a2,2,0,0,1-2.94-.31l-.17-.2a2.16,2.16,0,0,1-.33-.27L18.67,97.2ZM44.11,100C42.38,100,41,98.32,41,96.26s1.41-3.75,3.14-3.75h37c1.73,0,3.14,1.68,3.14,3.75S82.87,100,81.14,100Zm-12-71.07H69.27V24.56a18.58,18.58,0,0,0-37.15,0v4.37Zm-6,11.61V34.91H6V106a10.93,10.93,0,0,0,10.89,10.89H84.69A11,11,0,0,0,95.58,106V34.91H75.26V40.6a6.84,6.84,0,1,1-6-.1V34.91H32.12v5.65a6.84,6.84,0,1,1-6,0Z"/></svg>